<?xml version="1.0" encoding="UTF-8" standalone="no"?><!DOCTYPE svg PUBLIC "-//W3C//DTD SVG 1.1//EN" "http://www.w3.org/Graphics/SVG/1.1/DTD/svg11.dtd"><svg width="100%" height="100%" viewBox="0 0 1749 1749" version="1.1" xmlns="http://www.w3.org/2000/svg" xmlns:xlink="http://www.w3.org/1999/xlink" xml:space="preserve" xmlns:serif="http://www.serif.com/" style="fill-rule:evenodd;clip-rule:evenodd;stroke-linejoin:round;stroke-miterlimit:2;"><path d="M1748.031,437.008l0,874.016c0,241.191 -195.817,437.008 -437.008,437.008l-874.016,0c-241.191,0 -437.008,-195.817 -437.008,-437.008l0,-874.016c0,-241.191 195.817,-437.008 437.008,-437.008l874.016,0c241.191,0 437.008,195.817 437.008,437.008Zm-29.167,0c0,-225.094 -182.748,-407.841 -407.841,-407.841l-874.016,0c-225.094,0 -407.841,182.748 -407.841,407.841l0,874.016c0,225.094 182.748,407.841 407.841,407.841l874.016,0c225.094,0 407.841,-182.748 407.841,-407.841l0,-874.016Z" style="fill:#efe1e1;"/><g transform="matrix(1098.354694,0,0,1098.354694,69.894616,1258.439891)"><path d="M0.224,-0.381l0.121,0c0.026,0 0.045,-0.005 0.058,-0.015c0.013,-0.01 0.02,-0.029 0.02,-0.057l0,-0.033l0.036,0l0,0.242l-0.036,0l0,-0.033c0,-0.028 -0.007,-0.047 -0.02,-0.057c-0.013,-0.01 -0.033,-0.014 -0.058,-0.014l-0.121,0l0,0.272c0,0.011 0.002,0.019 0.006,0.025c0.004,0.006 0.013,0.011 0.027,0.013c0.014,0.003 0.036,0.004 0.065,0.004l0.07,0c0.038,0 0.069,-0.002 0.092,-0.006c0.023,-0.004 0.041,-0.012 0.053,-0.025c0.012,-0.013 0.021,-0.032 0.027,-0.058c0.006,-0.026 0.009,-0.061 0.012,-0.105l0.038,0l0,0.228l-0.569,-0l0,-0.034l0.057,0c0.009,0 0.016,-0.003 0.021,-0.008c0.005,-0.006 0.008,-0.015 0.008,-0.027l0,-0.561c0,-0.013 -0.003,-0.022 -0.008,-0.027c-0.005,-0.006 -0.012,-0.008 -0.021,-0.008l-0.057,0l0,-0.034l0.569,0l0,0.223l-0.038,0c-0.002,-0.044 -0.006,-0.079 -0.012,-0.104c-0.006,-0.025 -0.014,-0.044 -0.027,-0.056c-0.012,-0.012 -0.03,-0.02 -0.053,-0.024c-0.023,-0.003 -0.054,-0.005 -0.092,-0.005l-0.169,0l0,0.285Z" style="fill:#d96558;fill-rule:nonzero;"/></g><g transform="matrix(1098.354694,0,0,1098.354694,830.001114,1258.439891)"><path d="M0.101,-0.084l0.224,-0.616l0.087,-0l0.222,0.609c0.007,0.02 0.014,0.034 0.021,0.044c0.007,0.009 0.018,0.014 0.033,0.014l0.039,0l0,0.034l-0.272,-0l0,-0.034l0.054,0c0.016,0 0.026,-0.004 0.03,-0.011c0.005,-0.008 0.004,-0.019 -0.001,-0.035l-0.056,-0.156l0,0.004l-0.281,0l-0.055,0.155c-0.006,0.017 -0.006,0.029 -0.002,0.035c0.004,0.006 0.012,0.009 0.025,0.009l0.054,0l0,0.034l-0.213,-0l0,-0.034l0.041,0c0.012,0 0.022,-0.004 0.029,-0.011c0.007,-0.007 0.014,-0.02 0.021,-0.04Zm0.112,-0.182l0.26,0l-0.13,-0.368l-0.129,0.368Z" style="fill:#d96558;fill-rule:nonzero;"/></g><g transform="matrix(1098.354694,0,0,1098.354694,1639.511853,1258.439891)"></g></svg>